<?xml version="1.0" standalone="no"?><!DOCTYPE svg PUBLIC "-//W3C//DTD SVG 1.1//EN" "http://www.w3.org/Graphics/SVG/1.1/DTD/svg11.dtd"><svg t="1641969796143" class="icon" viewBox="0 0 1024 1024" version="1.1" xmlns="http://www.w3.org/2000/svg" p-id="5462" width="20" height="20" xmlns:xlink="http://www.w3.org/1999/xlink"><defs><style type="text/css"></style></defs><path d="M448 304c0-26.4 21.6-48 48-48l32 0c26.4 0 48 21.6 48 48l0 32c0 26.4-21.6 48-48 48l-32 0c-26.4 0-48-21.6-48-48l0-32z" p-id="5463" fill="#e6e6e6"></path><path d="M640 768l-256 0 0-64 64 0 0-192-64 0 0-64 192 0 0 256 64 0z" p-id="5464" fill="#e6e6e6"></path><path d="M512 0c-282.784 0-512 229.216-512 512s229.216 512 512 512 512-229.216 512-512-229.216-512-512-512zM512 928c-229.76 0-416-186.24-416-416s186.24-416 416-416 416 186.24 416 416-186.24 416-416 416z" p-id="5465" fill="#e6e6e6"></path></svg>